<svg width="112" height="112" viewBox="0 0 112 112" fill="none" xmlns="http://www.w3.org/2000/svg">
<path d="M80.2308 28H31.7692C25.8216 28 21 32.9954 21 39.1575V72.6298C21 78.792 25.8216 83.7873 31.7692 83.7873H47.9231L54.0962 90.183C54.3416 90.4411 54.6369 90.6467 54.9641 90.7871C55.2914 90.9276 55.6438 91 56 91C56.3561 91 56.7085 90.9276 57.0358 90.7871C57.3631 90.6467 57.6584 90.4411 57.9037 90.183L64.0768 83.7873H80.2307C86.1784 83.7873 90.9999 78.7919 90.9999 72.6298V39.1575C91 32.9954 86.1784 28 80.2308 28Z" fill="white"/>
<path d="M56 91.875C55.5263 91.8753 55.0575 91.7794 54.622 91.593C54.1866 91.4067 53.7935 91.1338 53.4667 90.7909L47.5515 84.6622H31.7693C25.3486 84.6622 20.125 79.2646 20.125 72.6299V39.1575C20.125 32.5228 25.3486 27.125 31.7693 27.125H80.2307C86.6514 27.125 91.875 32.5228 91.875 39.1575V72.6299C91.875 79.2646 86.6514 84.6622 80.2307 84.6622H64.4485L58.5333 90.7909C58.2065 91.1338 57.8134 91.4067 57.3779 91.593C56.9425 91.7794 56.4737 91.8753 56 91.875V91.875ZM31.7693 28.875C26.3135 28.875 21.875 33.4878 21.875 39.1575V72.6299C21.875 78.2997 26.3134 82.9122 31.7693 82.9122H47.9231C48.0406 82.9122 48.1569 82.9359 48.2651 82.9818C48.3732 83.0277 48.471 83.0949 48.5527 83.1795L54.7258 89.5753C54.8895 89.7489 55.087 89.8872 55.3061 89.9817C55.5252 90.0762 55.7613 90.125 56 90.125C56.2386 90.125 56.4747 90.0762 56.6938 89.9817C56.9129 89.8872 57.1104 89.7489 57.2741 89.5753L63.4472 83.1795C63.5289 83.0949 63.6267 83.0277 63.7348 82.9818C63.843 82.9359 63.9593 82.9122 64.0768 82.9122H80.2307C85.6863 82.9122 90.125 78.2997 90.125 72.6299V39.1575C90.125 33.4878 85.6866 28.875 80.2307 28.875H31.7693Z" fill="black"/>
<path d="M73.5 58.4026C70.7907 58.4026 68.5865 56.1331 68.5865 53.3436C68.5865 50.5541 70.7907 48.2847 73.5 48.2847C76.2093 48.2847 78.4134 50.5542 78.4134 53.3437C78.4134 56.1332 76.2093 58.4026 73.5 58.4026ZM73.5 50.0346C71.7556 50.0346 70.3365 51.519 70.3365 53.3436C70.3365 55.1681 71.7556 56.6526 73.5 56.6526C75.2443 56.6526 76.6634 55.1682 76.6634 53.3436C76.6634 51.519 75.2443 50.0347 73.5 50.0347V50.0346Z" fill="black"/>
<path d="M57.3462 58.4026C54.6369 58.4026 52.4327 56.1331 52.4327 53.3436C52.4327 50.5541 54.6369 48.2847 57.3462 48.2847C60.0554 48.2847 62.2596 50.5542 62.2596 53.3437C62.2596 56.1332 60.0555 58.4026 57.3462 58.4026ZM57.3462 50.0346C55.6018 50.0346 54.1827 51.519 54.1827 53.3436C54.1827 55.1681 55.6018 56.6526 57.3462 56.6526C59.0905 56.6526 60.5096 55.1682 60.5096 53.3436C60.5096 51.519 59.0905 50.0347 57.3462 50.0347V50.0346Z" fill="black"/>
<path d="M41.1923 58.4026C38.483 58.4026 36.2789 56.1331 36.2789 53.3436C36.2789 50.5541 38.483 48.2847 41.1923 48.2847C43.9016 48.2847 46.1057 50.5542 46.1057 53.3437C46.1057 56.1332 43.9016 58.4026 41.1923 58.4026ZM41.1923 50.0346C39.448 50.0346 38.0289 51.519 38.0289 53.3436C38.0289 55.1681 39.448 56.6526 41.1923 56.6526C42.9366 56.6526 44.3557 55.1682 44.3557 53.3436C44.3557 51.519 42.9366 50.0347 41.1923 50.0347V50.0346Z" fill="black"/>
</svg>
